<svg width="20" height="19" viewBox="0 0 20 19" fill="none" xmlns="http://www.w3.org/2000/svg">
<path d="M18.7774 19C16.508 19 14.2959 18.494 12.1411 17.4821C9.98569 16.4709 8.07689 15.1339 6.41474 13.471C4.75189 11.8089 3.41485 9.90006 2.40363 7.74461C1.39171 5.58987 0.885742 3.37778 0.885742 1.10833C0.885742 0.791667 0.991298 0.527778 1.20241 0.316667C1.41352 0.105556 1.67741 0 1.99408 0H6.26908C6.51537 0 6.73528 0.0791666 6.9288 0.2375C7.12232 0.395833 7.23667 0.598148 7.27185 0.844444L7.95796 4.53889C7.99315 4.78519 7.98893 5.00931 7.9453 5.21128C7.90096 5.41394 7.79963 5.59444 7.6413 5.75278L5.10796 8.33889C5.84685 9.60556 6.77046 10.7931 7.8788 11.9014C8.98713 13.0097 10.2098 13.9685 11.5469 14.7778L14.0274 12.2972C14.1857 12.1389 14.3926 12.02 14.6481 11.9404C14.9028 11.8616 15.1533 11.8398 15.3996 11.875L19.0413 12.6139C19.2876 12.6667 19.4899 12.7852 19.6482 12.9696C19.8066 13.1547 19.8857 13.3704 19.8857 13.6167V17.8917C19.8857 18.2083 19.7802 18.4722 19.5691 18.6833C19.358 18.8944 19.0941 19 18.7774 19Z" fill="#0A6579"/>
</svg>
