<svg width="131" height="73" viewBox="0 0 131 73" fill="none" xmlns="http://www.w3.org/2000/svg">
<path d="M121.858 0.299805H73.1085H58.664H9.91401C4.93609 0.299805 0.88623 3.74141 0.88623 7.97169V37.1249C0.88623 41.3551 4.93609 44.7967 9.91401 44.7967H58.664H73.1085H121.858C126.836 44.7967 130.886 41.3551 130.886 37.1249V7.97169C130.886 3.74141 126.836 0.299805 121.858 0.299805ZM9.91401 3.36856H58.664H73.1085H121.858C124.845 3.36856 127.275 5.43383 127.275 7.97169V29.453H73.1085H58.664H4.49734V7.97169C4.49734 5.43383 6.92762 3.36856 9.91401 3.36856ZM58.664 41.728H20.7473V38.6592H58.664H73.1085H111.025V41.728H73.1085H58.664ZM121.858 41.728H114.636V35.5905H73.1085H58.664H17.1362V41.728H9.91401C6.92762 41.728 4.49734 39.6627 4.49734 37.1249V32.5217H58.664H73.1085H127.275V37.1249C127.275 39.6627 124.845 41.728 121.858 41.728Z" fill="black"/>
<path d="M24.3575 20.2468H9.91309V23.3156H24.3575V20.2468Z" fill="black"/>
<path d="M31.5813 20.2468H27.9702V23.3156H31.5813V20.2468Z" fill="black"/>
<path d="M26.1636 50.9344H22.5525C22.5525 52.1557 22.0072 52.6958 21.1821 53.5152C20.1836 54.5033 18.9414 55.7354 18.9414 58.0922C18.9414 60.4506 20.1836 61.6811 21.1821 62.6708C22.0072 63.4902 22.5525 64.0303 22.5525 65.2532C22.5525 66.4761 22.0072 67.0177 21.1803 67.8355C20.1836 68.8252 18.9414 70.0573 18.9414 72.4156H22.5525C22.5525 71.1927 23.0978 70.6511 23.9247 69.8333C24.9214 68.8436 26.1636 67.61 26.1636 65.2532C26.1636 62.8964 24.9232 61.6643 23.9247 60.6746C23.0978 59.8568 22.5525 59.3151 22.5525 58.0922C22.5525 56.8693 23.0978 56.3292 23.9229 55.5114C24.9214 54.5217 26.1636 53.2912 26.1636 50.9344Z" fill="black"/>
<path d="M47.8306 50.9344H44.2195C44.2195 52.1557 43.6742 52.6958 42.8491 53.5152C41.8506 54.5033 40.6084 55.7354 40.6084 58.0922C40.6084 60.4506 41.8506 61.6811 42.8491 62.6708C43.6742 63.4902 44.2195 64.0303 44.2195 65.2532C44.2195 66.4761 43.6742 67.0177 42.8473 67.8355C41.8506 68.8252 40.6084 70.0573 40.6084 72.4156H44.2195C44.2195 71.1927 44.7648 70.6511 45.5917 69.8333C46.5884 68.8436 47.8306 67.61 47.8306 65.2532C47.8306 62.8964 46.5902 61.6643 45.5917 60.6746C44.7648 59.8568 44.2195 59.3151 44.2195 58.0922C44.2195 56.8693 44.7648 56.3292 45.5899 55.5114C46.5884 54.5217 47.8306 53.2912 47.8306 50.9344Z" fill="black"/>
<path d="M69.4971 50.9344H65.886C65.886 52.1557 65.3407 52.6958 64.5156 53.5152C63.5171 54.5033 62.2749 55.7354 62.2749 58.0922C62.2749 60.4506 63.5171 61.6811 64.5156 62.6708C65.3407 63.4902 65.886 64.0303 65.886 65.2532C65.886 66.4761 65.3407 67.0177 64.5138 67.8355C63.5171 68.8252 62.2749 70.0573 62.2749 72.4156H65.886C65.886 71.1927 66.4313 70.6511 67.2582 69.8333C68.2549 68.8436 69.4971 67.61 69.4971 65.2532C69.4971 62.8964 68.2567 61.6643 67.2582 60.6746C66.4313 59.8568 65.886 59.3151 65.886 58.0922C65.886 56.8693 66.4313 56.3292 67.2564 55.5114C68.2549 54.5217 69.4971 53.2912 69.4971 50.9344Z" fill="black"/>
<path d="M91.1641 50.9344H87.553C87.553 52.1557 87.0077 52.6958 86.1826 53.5152C85.1841 54.5033 83.9419 55.7354 83.9419 58.0922C83.9419 60.4506 85.1841 61.6811 86.1826 62.6708C87.0077 63.4902 87.553 64.0303 87.553 65.2532C87.553 66.4761 87.0077 67.0177 86.1808 67.8355C85.1841 68.8252 83.9419 70.0573 83.9419 72.4156H87.553C87.553 71.1927 88.0983 70.6511 88.9252 69.8333C89.9219 68.8436 91.1641 67.61 91.1641 65.2532C91.1641 62.8964 89.9237 61.6643 88.9252 60.6746C88.0983 59.8568 87.553 59.3151 87.553 58.0922C87.553 56.8693 88.0983 56.3292 88.9234 55.5114C89.9219 54.5217 91.1641 53.2912 91.1641 50.9344Z" fill="black"/>
<path d="M112.831 50.9344H109.22C109.22 52.1557 108.674 52.6958 107.849 53.5152C106.851 54.5033 105.608 55.7354 105.608 58.0922C105.608 60.4506 106.851 61.6811 107.849 62.6708C108.674 63.4902 109.22 64.0303 109.22 65.2532C109.22 66.4761 108.674 67.0177 107.847 67.8355C106.851 68.8252 105.608 70.0573 105.608 72.4156H109.22C109.22 71.1927 109.765 70.6511 110.592 69.8333C111.588 68.8436 112.831 67.61 112.831 65.2532C112.831 62.8964 111.59 61.6643 110.592 60.6746C109.765 59.8568 109.22 59.3151 109.22 58.0922C109.22 56.8693 109.765 56.3292 110.59 55.5114C111.588 54.5217 112.831 53.2912 112.831 50.9344Z" fill="black"/>
</svg>
