<svg width="101" height="98" viewBox="0 0 101 98" fill="none" xmlns="http://www.w3.org/2000/svg">
<path d="M99.0184 39.9926H93.0926C92.0064 35.3325 90.1002 30.8879 87.4572 26.8531L92.0943 22.3656C92.3966 22.0729 92.5665 21.676 92.5665 21.2621C92.5665 20.8482 92.3966 20.4512 92.0943 20.1585L80.8039 9.23241C80.5015 8.93979 80.0913 8.77541 79.6636 8.77541C79.2359 8.77541 78.8257 8.93979 78.5233 9.23241L73.8846 13.7199C69.716 11.1621 65.1237 9.31728 60.3088 8.26623V2.53158C60.3088 2.11761 60.1388 1.72059 59.8364 1.42787C59.5339 1.13515 59.1236 0.970703 58.6959 0.970703H42.5668C42.1391 0.970703 41.7288 1.13515 41.4263 1.42787C41.1239 1.72059 40.9539 2.11761 40.9539 2.53158V8.26623C36.139 9.31728 31.5467 11.1621 27.3781 13.7199L22.7394 9.23241C22.4369 8.93979 22.0268 8.77541 21.5991 8.77541C21.1714 8.77541 20.7612 8.93979 20.4588 9.23241L9.16844 20.1585C8.86607 20.4512 8.69621 20.8482 8.69621 21.2621C8.69621 21.676 8.86607 22.0729 9.16844 22.3656L13.8055 26.8531C11.1625 30.8879 9.25625 35.3325 8.17006 39.9926H2.24425C1.81648 39.9926 1.40623 40.157 1.10376 40.4497C0.801278 40.7424 0.631348 41.1395 0.631348 41.5534V57.1622C0.631348 57.5761 0.801278 57.9732 1.10376 58.2659C1.40623 58.5586 1.81648 58.723 2.24425 58.723H8.17006C9.25625 63.3831 11.1625 67.8277 13.8055 71.8625L9.16844 76.35C8.86607 76.6427 8.69621 77.0396 8.69621 77.4535C8.69621 77.8674 8.86607 78.2644 9.16844 78.5571L20.4588 89.4832C20.7612 89.7758 21.1714 89.9402 21.5991 89.9402C22.0268 89.9402 22.4369 89.7758 22.7394 89.4832L27.3781 84.9957C31.5467 87.5535 36.139 89.3983 40.9539 90.4494V96.184C40.9539 96.598 41.1239 96.995 41.4263 97.2877C41.7288 97.5805 42.1391 97.7449 42.5668 97.7449H58.6959C59.1236 97.7449 59.5339 97.5805 59.8364 97.2877C60.1388 96.995 60.3088 96.598 60.3088 96.184V90.4494C65.1239 89.3989 69.7162 87.5541 73.8846 84.9957L78.5233 89.4832C78.8257 89.7758 79.2359 89.9402 79.6636 89.9402C80.0913 89.9402 80.5015 89.7758 80.8039 89.4832L92.0943 78.5571C92.3966 78.2644 92.5665 77.8674 92.5665 77.4535C92.5665 77.0396 92.3966 76.6427 92.0943 76.35L87.4572 71.8625C90.1002 67.8277 92.0064 63.3831 93.0926 58.723H99.0184C99.4462 58.723 99.8565 58.5586 100.159 58.2659C100.461 57.9732 100.631 57.5761 100.631 57.1622V41.5534C100.631 41.1395 100.461 40.7424 100.159 40.4497C99.8565 40.157 99.4462 39.9926 99.0184 39.9926ZM97.4055 55.6013H91.7846C91.4101 55.6011 91.0473 55.7271 90.7584 55.9575C90.4694 56.1879 90.2722 56.5084 90.2007 56.864C89.175 61.9942 87.0838 66.8694 84.0539 71.1944C83.8441 71.4947 83.7488 71.8563 83.7844 72.2172C83.82 72.578 83.9843 72.9156 84.2491 73.1721L88.6733 77.4535L79.6636 86.1726L75.2394 81.8911C74.9743 81.6345 74.6252 81.4753 74.2519 81.4408C73.8787 81.4063 73.5047 81.4988 73.1943 81.7022C68.7254 84.634 63.6883 86.6577 58.3878 87.6507C58.0203 87.7199 57.6891 87.9107 57.451 88.1904C57.2129 88.4701 57.0828 88.8212 57.083 89.1835V94.6231H44.1797V89.1835C44.1799 88.8212 44.0498 88.4701 43.8117 88.1904C43.5736 87.9107 43.2424 87.7199 42.8749 87.6507C37.5741 86.6585 32.5368 84.6348 28.0684 81.7022C27.758 81.4988 27.384 81.4063 27.0108 81.4408C26.6375 81.4753 26.2884 81.6345 26.0233 81.8911L21.5991 86.1726L12.5894 77.4535L17.0136 73.1721C17.2784 72.9156 17.4427 72.578 17.4783 72.2172C17.5139 71.8563 17.4186 71.4947 17.2088 71.1944C14.1789 66.8694 12.0877 61.9942 11.062 56.864C10.9905 56.5084 10.7933 56.1879 10.5043 55.9575C10.2154 55.7271 9.85254 55.6011 9.47812 55.6013H3.85715V43.1143H9.47812C9.85254 43.1145 10.2154 42.9885 10.5043 42.7581C10.7933 42.5277 10.9905 42.2072 11.062 41.8516C12.0877 36.7214 14.1789 31.8462 17.2088 27.5212C17.4186 27.2209 17.5139 26.8593 17.4783 26.4984C17.4427 26.1376 17.2784 25.8 17.0136 25.5435L12.5894 21.2621L21.5991 12.543L26.0233 16.8245C26.2884 17.0811 26.6375 17.2403 27.0108 17.2748C27.384 17.3093 27.758 17.2168 28.0684 17.0134C32.5368 14.0808 37.5741 12.0571 42.8749 11.0649C43.2424 10.9957 43.5736 10.8049 43.8117 10.5252C44.0498 10.2455 44.1799 9.89444 44.1797 9.5321V4.09245H57.083V9.5321C57.0828 9.89444 57.2129 10.2455 57.451 10.5252C57.6891 10.8049 58.0203 10.9957 58.3878 11.0649C63.6885 12.0571 68.7258 14.0808 73.1943 17.0134C73.5047 17.2168 73.8787 17.3093 74.2519 17.2748C74.6252 17.2403 74.9743 17.0811 75.2394 16.8245L79.6636 12.543L88.6733 21.2621L84.2491 25.5435C83.9843 25.8 83.82 26.1376 83.7844 26.4984C83.7488 26.8593 83.8441 27.2209 84.0539 27.5212C87.0838 31.8462 89.175 36.7214 90.2007 41.8516C90.2722 42.2072 90.4694 42.5277 90.7584 42.7581C91.0473 42.9885 91.4101 43.1145 91.7846 43.1143H97.4055V55.6013Z" fill="black"/>
<path d="M50.6315 13.4579C43.2944 13.4579 36.1221 15.5634 30.0216 19.5081C23.9211 23.4529 19.1663 29.0597 16.3585 35.6196C13.5507 42.1795 12.8161 49.3978 14.2475 56.3617C15.6789 63.3257 19.212 69.7225 24.4001 74.7432C29.5882 79.7639 36.1982 83.1831 43.3942 84.5683C50.5903 85.9535 58.0492 85.2426 64.8278 82.5254C71.6063 79.8082 77.4 75.2068 81.4763 69.303C85.5525 63.3993 87.7282 56.4584 87.7282 49.358C87.7171 39.84 83.8052 30.7149 76.8506 23.9846C69.896 17.2544 60.4667 13.4686 50.6315 13.4579ZM50.6315 82.1363C43.9324 82.1363 37.3838 80.2139 31.8138 76.6122C26.2437 73.0105 21.9024 67.8912 19.3388 61.9017C16.7752 55.9123 16.1044 49.3216 17.4113 42.9632C18.7182 36.6049 21.9441 30.7643 26.6811 26.1802C31.418 21.5961 37.4532 18.4742 44.0236 17.2095C50.5939 15.9447 57.4042 16.5938 63.5933 19.0747C69.7824 21.5557 75.0723 25.7569 78.7941 31.1473C82.5159 36.5377 84.5024 42.875 84.5024 49.358C84.4922 58.0483 80.9203 66.3798 74.5705 72.5248C68.2207 78.6698 59.6114 82.1264 50.6315 82.1363Z" fill="black"/>
<path d="M62.5895 44.6756H65.1476C65.5753 44.6755 65.9855 44.511 66.2879 44.2183L74.3524 36.4139C74.6548 36.1212 74.8247 35.7242 74.8247 35.3103C74.8247 34.8965 74.6548 34.4995 74.3524 34.2068L66.2879 26.4024C65.9855 26.1098 65.5753 25.9454 65.1476 25.9454C64.7199 25.9454 64.3097 26.1098 64.0073 26.4024L55.9428 34.2068C55.6403 34.4995 55.4703 34.8964 55.4702 35.3103V37.7859L50.6315 42.4685L45.7928 37.7859V35.3103C45.7927 34.8964 45.6227 34.4995 45.3202 34.2068L37.2557 26.4024C36.9532 26.1098 36.543 25.9454 36.1153 25.9454C35.6877 25.9454 35.2775 26.1098 34.975 26.4024L26.9105 34.2068C26.6081 34.4995 26.4383 34.8965 26.4383 35.3103C26.4383 35.7242 26.6081 36.1212 26.9105 36.4139L34.975 44.2183C35.2774 44.511 35.6876 44.6755 36.1153 44.6756H38.6734L43.5121 49.3582L40.9541 51.8338L40.4815 51.3764C40.179 51.0838 39.7688 50.9194 39.3411 50.9194C38.9135 50.9194 38.5033 51.0838 38.2008 51.3764L28.0508 61.1974C27.0181 62.197 26.438 63.5527 26.438 64.9662C26.438 66.3797 27.0181 67.7353 28.0508 68.7349L30.6089 71.2104C31.6415 72.2097 33.0421 72.7711 34.5024 72.7711C35.9628 72.7711 37.3633 72.2097 38.396 71.2104L48.546 61.3879C48.8484 61.0952 49.0182 60.6982 49.0182 60.2843C49.0182 59.8704 48.8484 59.4735 48.546 59.1808L48.0734 58.7235L50.6315 56.2479L53.1895 58.7235L52.717 59.1808C52.4146 59.4735 52.2447 59.8704 52.2447 60.2843C52.2447 60.6982 52.4146 61.0952 52.717 61.3879L62.8669 71.2104C63.8996 72.2097 65.3001 72.7711 66.7605 72.7711C68.2209 72.7711 69.6214 72.2097 70.654 71.2104L73.2121 68.7365C74.2448 67.7369 74.825 66.3812 74.825 64.9677C74.825 63.5542 74.2448 62.1986 73.2121 61.199L63.0621 51.3764C62.7597 51.0838 62.3495 50.9194 61.9218 50.9194C61.4941 50.9194 61.0839 51.0838 60.7815 51.3764L60.3089 51.8338L57.7508 49.3582L62.5895 44.6756ZM65.1476 29.7131L70.9315 35.3103L68.3734 37.7859L62.5895 32.1886L65.1476 29.7131ZM36.1153 29.7131L38.6734 32.1886L32.8895 37.7859L30.3315 35.3103L36.1153 29.7131ZM40.4815 42.0112C40.1791 41.7184 39.7689 41.5539 39.3411 41.5538H36.7831L35.1702 39.993L40.9541 34.3957L42.567 35.9565V38.4321C42.567 38.846 42.737 39.243 43.0395 39.5356L48.3508 44.6756L45.7928 47.1511L40.4815 42.0112ZM36.1153 69.0018C35.681 69.4037 35.1033 69.6279 34.5024 69.6279C33.9016 69.6279 33.3238 69.4037 32.8895 69.0018L30.3315 66.5278C29.904 66.1137 29.6639 65.5523 29.6639 64.9669C29.6639 64.3816 29.904 63.8202 30.3315 63.4061L39.3411 54.687L45.125 60.2843L36.1153 69.0018ZM43.2347 54.0408L58.2234 39.5356C58.5259 39.243 58.6959 38.846 58.696 38.4321V35.9565L60.3089 34.3957L66.0928 39.993L64.4799 41.5538H61.9218C61.4941 41.5539 61.0839 41.7184 60.7815 42.0112L45.7928 56.5164L43.2347 54.0408ZM70.9315 63.4061C71.3589 63.8202 71.599 64.3816 71.599 64.9669C71.599 65.5523 71.3589 66.1137 70.9315 66.5278L68.3734 69.0018C67.9391 69.4037 67.3614 69.6279 66.7605 69.6279C66.1596 69.6279 65.5819 69.4037 65.1476 69.0018L56.1379 60.2843L61.9218 54.687L70.9315 63.4061ZM58.0282 54.0408L55.4702 56.5164L52.9121 54.0408L55.4702 51.5653L58.0282 54.0408Z" fill="black"/>
</svg>
