<svg width="19" height="20" viewBox="0 0 19 20" fill="none" xmlns="http://www.w3.org/2000/svg">
<mask id="mask0_1_1489" style="mask-type:alpha" maskUnits="userSpaceOnUse" x="0" y="0" width="19" height="20">
<rect y="0.871338" width="19" height="19" fill="#D9D9D9"/>
</mask>
<g mask="url(#mask0_1_1489)">
<path d="M17.8917 19.8713C15.6222 19.8713 13.4101 19.3654 11.2554 18.3534C9.09995 17.3422 7.19115 16.0052 5.529 14.3423C3.86615 12.6802 2.52911 10.7714 1.51789 8.61595C0.505963 6.46121 0 4.24912 0 1.97967C0 1.663 0.105556 1.39912 0.316667 1.188C0.527778 0.976893 0.791667 0.871338 1.10833 0.871338H5.38333C5.62963 0.871338 5.84954 0.950504 6.04306 1.10884C6.23657 1.26717 6.35093 1.46949 6.38611 1.71578L7.07222 5.41023C7.10741 5.65652 7.10319 5.88065 7.05956 6.08262C7.01522 6.28528 6.91389 6.46578 6.75556 6.62412L4.22222 9.21023C4.96111 10.4769 5.88472 11.6644 6.99306 12.7727C8.10139 13.8811 9.32407 14.8399 10.6611 15.6491L13.1417 13.1686C13.3 13.0102 13.5069 12.8913 13.7623 12.8118C14.0171 12.733 14.2676 12.7112 14.5139 12.7463L18.1556 13.4852C18.4019 13.538 18.6042 13.6566 18.7625 13.8409C18.9208 14.026 19 14.2417 19 14.488V18.763C19 19.0797 18.8944 19.3436 18.6833 19.5547C18.4722 19.7658 18.2083 19.8713 17.8917 19.8713Z" fill="white"/>
</g>
</svg>
