<svg width="15" height="19" viewBox="0 0 15 19" fill="none" xmlns="http://www.w3.org/2000/svg">
<path d="M7.50004 16.15C5.26754 14.5033 3.60092 12.9042 2.50019 11.3525C1.40009 9.80083 0.850037 8.28083 0.850037 6.7925C0.850037 5.66833 1.05207 4.68255 1.45614 3.83515C1.85957 2.98838 2.37795 2.28 3.01129 1.71C3.64462 1.14 4.35712 0.7125 5.14879 0.4275C5.94045 0.1425 6.7242 0 7.50004 0C8.27587 0 9.05962 0.1425 9.85129 0.4275C10.643 0.7125 11.3555 1.14 11.9888 1.71C12.6221 2.28 13.1408 2.98838 13.5449 3.83515C13.9483 4.68255 14.15 5.66833 14.15 6.7925C14.15 8.28083 13.5997 9.80083 12.4989 11.3525C11.3988 12.9042 9.73254 14.5033 7.50004 16.15ZM7.50004 8.55C8.02254 8.55 8.46999 8.3638 8.84239 7.9914C9.21415 7.61963 9.40004 7.1725 9.40004 6.65C9.40004 6.1275 9.21415 5.68005 8.84239 5.30765C8.46999 4.93588 8.02254 4.75 7.50004 4.75C6.97754 4.75 6.5304 4.93588 6.15864 5.30765C5.78624 5.68005 5.60004 6.1275 5.60004 6.65C5.60004 7.1725 5.78624 7.61963 6.15864 7.9914C6.5304 8.3638 6.97754 8.55 7.50004 8.55ZM0.850037 19V17.1H14.15V19H0.850037Z" fill="#0A6579"/>
</svg>
