<svg width="20" height="27" viewBox="0 0 20 27" fill="none" xmlns="http://www.w3.org/2000/svg">
<path d="M10.0001 22.6752C6.94506 20.4219 4.66442 18.2335 3.15815 16.1102C1.65275 13.9869 0.900055 11.9069 0.900055 9.87019C0.900055 8.33186 1.17652 6.9829 1.72945 5.8233C2.28152 4.66456 2.99089 3.6952 3.85756 2.9152C4.72422 2.1352 5.69922 1.5502 6.78255 1.1602C7.86589 0.770195 8.93839 0.575195 10.0001 0.575195C11.0617 0.575195 12.1342 0.770195 13.2176 1.1602C14.3009 1.5502 15.2759 2.1352 16.1426 2.9152C17.0092 3.6952 17.719 4.66456 18.272 5.8233C18.824 6.9829 19.1001 8.33186 19.1001 9.87019C19.1001 11.9069 18.3469 13.9869 16.8407 16.1102C15.3353 18.2335 13.0551 20.4219 10.0001 22.6752ZM10.0001 12.2752C10.7151 12.2752 11.3274 12.0204 11.837 11.5108C12.3457 11.0021 12.6001 10.3902 12.6001 9.67519C12.6001 8.96019 12.3457 8.34789 11.837 7.83829C11.3274 7.32956 10.7151 7.0752 10.0001 7.0752C9.28506 7.0752 8.67319 7.32956 8.16446 7.83829C7.65486 8.34789 7.40006 8.96019 7.40006 9.67519C7.40006 10.3902 7.65486 11.0021 8.16446 11.5108C8.67319 12.0204 9.28506 12.2752 10.0001 12.2752ZM0.900055 26.5752V23.9752H19.1001V26.5752H0.900055Z" fill="white"/>
</svg>
