<svg width="28" height="27" viewBox="0 0 28 27" fill="none" xmlns="http://www.w3.org/2000/svg">
<path d="M8.81728 27.0002C8.07478 27.0002 7.43938 26.7361 6.91108 26.2078C6.38188 25.6786 6.11728 25.0427 6.11728 24.3002C6.11728 23.5577 6.38188 22.9219 6.91108 22.3927C7.43938 21.8644 8.07478 21.6002 8.81728 21.6002C9.55978 21.6002 10.1952 21.8644 10.7235 22.3927C11.2527 22.9219 11.5173 23.5577 11.5173 24.3002C11.5173 25.0427 11.2527 25.6786 10.7235 26.2078C10.1952 26.7361 9.55978 27.0002 8.81728 27.0002ZM22.3173 27.0002C21.5748 27.0002 20.9394 26.7361 20.4111 26.2078C19.8819 25.6786 19.6173 25.0427 19.6173 24.3002C19.6173 23.5577 19.8819 22.9219 20.4111 22.3927C20.9394 21.8644 21.5748 21.6002 22.3173 21.6002C23.0598 21.6002 23.6956 21.8644 24.2248 22.3927C24.7531 22.9219 25.0173 23.5577 25.0173 24.3002C25.0173 25.0427 24.7531 25.6786 24.2248 26.2078C23.6956 26.7361 23.0598 27.0002 22.3173 27.0002ZM6.38728 2.70024H26.2998C26.8173 2.70024 27.211 2.93064 27.481 3.39144C27.751 3.85314 27.7623 4.32024 27.5148 4.79274L22.7223 13.4327C22.4748 13.8827 22.1427 14.2315 21.726 14.479C21.3102 14.7265 20.8548 14.8502 20.3598 14.8502H10.3023L8.81728 17.5502H25.0173V20.2502H8.81728C7.80478 20.2502 7.03978 19.8056 6.52229 18.9164C6.00479 18.0281 5.98228 17.1452 6.45478 16.2677L8.27728 12.9602L3.41728 2.70024H0.717285V0.000244141H5.10478L6.38728 2.70024Z" fill="white"/>
</svg>
