<svg width="44" height="42" viewBox="0 0 44 42" fill="none" xmlns="http://www.w3.org/2000/svg">
<path d="M17.7194 11.6755H35.307V9.25796H17.7194V11.6755ZM17.7194 18.3842H35.307V15.9666H17.7194V18.3842ZM17.7194 25.0928H28.0543V22.6753H17.7194V25.0928ZM10.2854 12.3403C10.8092 12.3403 11.2524 12.159 11.6151 11.7964C11.9777 11.4337 12.159 10.9905 12.159 10.4667C12.159 9.98322 11.9777 9.55048 11.6151 9.16851C11.2524 8.78493 10.8092 8.59314 10.2854 8.59314C9.80191 8.59314 9.36917 8.78493 8.9872 9.16851C8.60361 9.55048 8.41182 9.98322 8.41182 10.4667C8.41182 10.9905 8.60361 11.4337 8.9872 11.7964C9.36917 12.159 9.80191 12.3403 10.2854 12.3403ZM10.2854 19.049C10.8092 19.049 11.2524 18.8572 11.6151 18.4736C11.9777 18.0917 12.159 17.6589 12.159 17.1754C12.159 16.6919 11.9777 16.2584 11.6151 15.8748C11.2524 15.4928 10.8092 15.3018 10.2854 15.3018C9.80191 15.3018 9.36917 15.4928 8.9872 15.8748C8.60361 16.2584 8.41182 16.6919 8.41182 17.1754C8.41182 17.6589 8.60361 18.0917 8.9872 18.4736C9.36917 18.8572 9.80191 19.049 10.2854 19.049ZM10.2854 25.7577C10.8092 25.7577 11.2524 25.5659 11.6151 25.1823C11.9777 24.8003 12.159 24.3676 12.159 23.8841C12.159 23.3603 11.9777 22.9171 11.6151 22.5544C11.2524 22.1918 10.8092 22.0105 10.2854 22.0105C9.80191 22.0105 9.36917 22.1918 8.9872 22.5544C8.60361 22.9171 8.41182 23.3603 8.41182 23.8841C8.41182 24.3676 8.60361 24.8003 8.9872 25.1823C9.36917 25.5659 9.80191 25.7577 10.2854 25.7577ZM0.252625 41.5321V4.18113C0.252625 3.05294 0.625732 2.11574 1.37195 1.36953C2.11655 0.624925 3.05294 0.252625 4.18113 0.252625H39.8398C40.968 0.252625 41.9052 0.624925 42.6514 1.36953C43.396 2.11574 43.7683 3.05294 43.7683 4.18113V30.1697C43.7683 31.2979 43.396 32.2351 42.6514 32.9813C41.9052 33.7259 40.968 34.0982 39.8398 34.0982H7.68656L0.252625 41.5321Z" fill="white"/>
</svg>
